{"title":"Dinner for Schmucks 720p BRRip x264 Feel-Free","uid":6052489,"size":2202283862,"categoryP":"video","categoryS":"hd___movies","magnet":"?xt=urn:btih:519b2ac0a25da5d4a0deae7f200ab99d30517327&amp;dn=Dinner+for+Schmucks+720p+BRRip+x264+Feel-Free&amp;tr=udp%3A%2F%2Ftracker.openbittorrent.com%3A80&amp;tr=udp%3A%2F%2Fopen.demonii.com%3A1337&amp;tr=udp%3A%2F%2Ftracker.coppersurfer.tk%3A6969&amp;tr=udp%3A%2F%2Fexodus.desync.com%3A6969","seeders":0,"leechers":1,"uploader":".BONE.","files":8,"time":1292788974,"description":"\nGenre:Comedy\nLanguage:English\nIMDb:http://www.imdb.com/title/tt0427152/\nSource:Bluray.x264-CBGB\nSubtitles:Romana\n\n\nFormat : Matroska\nFile size : 2.05 GiB\nDuration : 1h 54mn\nOverall bit rate : 2 568 Kbps\n\n\nVideo\nID : 1\nFormat : AVC\nFormat/Info : Advanced Video Codec\nFormat profile : &lt;a class=&quot;__cf_email__&quot; href=&quot;/cdn-cgi/l/email-protection&quot; data-cfemail=&quot;a3ebcac4cbe3ef908d92&quot;&gt;[email&amp;#160;protected]&lt;/a&gt;&lt;script cf-hash='f9e31' type=&quot;text/javascript&quot;&gt;\n/* &lt;![CDATA[ */!function(){try{var t=&quot;currentScript&quot;in document?document.currentScript:function(){for(var t=document.getElementsByTagName(&quot;script&quot;),e=t.length;e--;)if(t[e].getAttribute(&quot;cf-hash&quot;))return t[e]}();if(t&amp;&amp;t.previousSibling){var e,r,n,i,c=t.previousSibling,a=c.getAttribute(&quot;data-cfemail&quot;);if(a){for(e=&quot;&quot;,r=parseInt(a.substr(0,2),16),n=2;a.length-n;n+=2)i=parseInt(a.substr(n,2),16)^r,e+=String.fromCharCode(i);e=document.createTextNode(e),c.parentNode.replaceChild(e,c)}}}catch(u){}}();/* ]]&gt; */&lt;/script&gt;\nFormat settings, CABAC : Yes\nFormat settings, ReFrames : 4 frames\nCodec ID : V_MPEG4/ISO/AVC\nDuration : 1h 54mn\nBit rate : 2 200 Kbps\nWidth : 1 280 pixels\nHeight : 720 pixels\nDisplay aspect ratio : 16:9\nFrame rate mode : Variable\nFrame rate : 23.976 fps\nColor space : YUV\nChroma subsampling : 4:2:0\nBit depth : 8 bits\nScan type : Progressive\nBits/(Pixel*Frame) : 0.100\nStream size : 1.70 GiB (83%)\nWriting library : x264\n\\\n\nAudio\nID : 2\nFormat : AC-3\nFormat/Info : Audio Coding 3\nMode extension : CM (complete main)\nCodec ID : A_AC3\nDuration : 1h 54mn\nBit rate mode : Constant\nBit rate : 384 Kbps\nChannel(s) : 6 channels\nChannel positions : Front: L C R, Side: L R, LFE\nSampling rate : 48.0 KHz\nBit depth : 16 bits\nVideo delay : -1mn 5s\nStream size : 313 MiB (15%)\nLanguage : English\n\n\n\nPlot:\nTim (Rudd) is a rising executive who &quot;succeeds&quot; in finding the perfect guest, IRS employee Barry (Carell)","torrent":{"xt":"urn:btih:519b2ac0a25da5d4a0deae7f200ab99d30517327","amp;dn":"Dinner+for+Schmucks+720p+BRRip+x264+Feel-Free","amp;tr":["udp%3A%2F%2Ftracker.openbittorrent.com%3A80","udp%3A%2F%2Fopen.demonii.com%3A1337","udp%3A%2F%2Ftracker.coppersurfer.tk%3A6969","udp%3A%2F%2Fexodus.desync.com%3A6969"],"infoHash":"519b2ac0a25da5d4a0deae7f200ab99d30517327","infoHashBuffer":{"type":"Buffer","data":[81,155,42,192,162,93,165,212,160,222,174,127,32,10,185,157,48,81,115,39]},"announce":[],"urlList":[]}}